HIERARCHY
ROOT Hips
{
	OFFSET 0.000000 8.830580 0.000000
	CHANNELS 6 Xposition Yposition Zposition Zrotation Yrotation Xrotation 
	JOINT Spine
	{
		OFFSET 0.000000 0.010000 0.000000
		CHANNELS 3 Zrotation Yrotation Xrotation
		JOINT Spine1
		{
			OFFSET 0.000000 2.459130 0.000000
			CHANNELS 3 Zrotation Yrotation Xrotation
			JOINT Neck
			{
				OFFSET 0.000000 2.484630 0.000000
				CHANNELS 3 Zrotation Yrotation Xrotation
				JOINT Head_virtual
				{
					OFFSET 0.000000 0.000000 0.000000
					CHANNELS 3 Zrotation Yrotation Xrotation
					JOINT Head
					{
						OFFSET 0.000000 0.927525 0.000000
						CHANNELS 3 Zrotation Yrotation Xrotation
						End Site
						{
							OFFSET 0.000000 0.000000 0.000000
						}
					}
				}
				JOINT LeftUpArm_virtual
				{
					OFFSET 0.000000 0.000000 0.000000
					CHANNELS 3 Zrotation Yrotation Xrotation
					JOINT LeftUpArm
					{
						OFFSET 1.248820 0.000000 0.000000
						CHANNELS 3 Zrotation Yrotation Xrotation
						JOINT LeftForeArm
						{
							OFFSET 2.597580 0.000000 0.000000
							CHANNELS 3 Zrotation Yrotation Xrotation
							JOINT LeftHand
							{
								OFFSET 2.455420 0.000000 0.000000
								CHANNELS 3 Zrotation Yrotation Xrotation
								End Site
								{
									OFFSET 0.000000 0.000000 0.000000
								}
							}
						}
					}
				}
				JOINT RightUpArm_virtual
				{
					OFFSET -0.000000 -0.000000 -0.000000
					CHANNELS 3 Zrotation Yrotation Xrotation
					JOINT RightUpArm
					{
						OFFSET -1.248820 -0.000000 -0.000000
						CHANNELS 3 Zrotation Yrotation Xrotation
						JOINT RightForeArm
						{
							OFFSET -2.597580 -0.000000 -0.000000
							CHANNELS 3 Zrotation Yrotation Xrotation
							JOINT RightHand
							{
								OFFSET -2.455420 -0.000000 -0.000000
								CHANNELS 3 Zrotation Yrotation Xrotation
								End Site
								{
									OFFSET 0.000000 0.000000 0.000000
								}
							}
						}
					}
				}
			}
		}
	}
	JOINT LeftUpLeg
	{
		OFFSET 1.271939 0.000000 0.000000
		CHANNELS 3 Zrotation Yrotation Xrotation
		JOINT LeftLowLeg
		{
			OFFSET 0.000000 -4.342910 0.000000
			CHANNELS 3 Zrotation Yrotation Xrotation
			JOINT LeftFoot
			{
				OFFSET 0.000000 -4.487670 0.000000
				CHANNELS 3 Zrotation Yrotation Xrotation
				JOINT LeftToeBase
				{
					OFFSET 0.000000 0.000000 1.515070
					CHANNELS 3 Zrotation Yrotation Xrotation
					End Site
					{
						OFFSET 0.000000 0.000000 0.000000
					}
				}
			}
		}
	}
	JOINT RightUpLeg
	{
		OFFSET -1.271939 0.000000 0.000000
		CHANNELS 3 Zrotation Yrotation Xrotation
		JOINT RightLowLeg
		{
			OFFSET 0.000000 -4.342910 0.000000
			CHANNELS 3 Zrotation Yrotation Xrotation
			JOINT RightFoot
			{
				OFFSET 0.000000 -4.487670 0.000000
				CHANNELS 3 Zrotation Yrotation Xrotation
				JOINT RightToeBase
				{
					OFFSET 0.000000 0.000000 1.515070
					CHANNELS 3 Zrotation Yrotation Xrotation
					End Site
					{
						OFFSET 0.000000 0.000000 0.000000
					}
				}
			}
		}
	}
}
MOTION
Frames: 13
Frame Time: 0.041667
-16.632300 9.189186 28.708480 -173.952211 -19.905675 168.462903 1.702520 -1.325365 -12.694053 11.426794 -6.839364 34.933694 0.000000 0.000000 0.000000 11.685610 -32.490152 8.873967 14.097671 -0.891968 -66.356453 -32.422501 0.531361 -13.722800 -35.235901 9.159790 51.584015 0.000000 -51.923199 0.000000 10.990100 8.192270 -12.144100 19.440100 -0.662417 -0.610697 16.836599 13.597600 -33.423698 0.000000 51.950500 0.000000 -9.540720 -1.997240 -42.742001 3.537743 9.923824 9.947080 0.000000 0.000000 13.695600 -5.653469 14.337865 0.399854 0.000000 0.000000 -8.752300 -0.643797 19.418287 -5.000669 0.000000 0.000000 36.570499 24.250343 -16.572065 11.566772 0.000000 0.000000 -19.908550 
-16.680597 9.197251 28.729361 -173.949793 -20.453819 168.620619 1.313861 -1.716310 -13.161311 11.115295 -7.068243 34.817073 0.000000 0.000000 0.000000 11.841720 -32.476210 8.910405 13.834987 -0.732610 -65.871355 -32.249802 0.440924 -13.501900 -35.020199 9.164730 51.862000 0.000000 -51.739700 0.000000 10.629600 8.130830 -11.825100 19.834999 -0.767297 -0.785357 17.560200 13.502400 -32.260101 0.000000 51.431999 0.000000 -9.870330 -2.967920 -44.301701 3.364578 10.301970 10.683505 0.000000 0.000000 11.720600 -5.007030 13.463514 1.289338 0.000000 0.000000 -8.596820 -0.865837 18.984772 -6.270883 0.000000 0.000000 38.387600 24.890265 -17.511058 11.800009 0.000000 0.000000 -20.344410 
-16.724913 9.207549 28.742165 -173.794162 -21.224768 168.816666 0.903249 -2.264467 -13.624344 11.085829 -7.270156 34.273022 0.000000 0.000000 0.000000 11.771158 -32.412479 9.060599 13.715621 -0.855176 -65.368415 -32.260601 0.400832 -13.260900 -34.689098 9.280110 52.408997 0.000000 -51.522202 0.000000 10.199200 8.166110 -11.312500 20.157200 -1.034190 -0.801563 18.302601 13.303400 -30.932100 0.000000 50.857498 0.000000 -9.873970 -4.394110 -45.926899 3.392283 10.718279 11.393366 0.000000 0.000000 9.613800 -4.444487 12.264794 2.278019 0.000000 0.000000 -8.578510 -0.847916 18.125729 -7.413153 0.000000 0.000000 39.891899 24.118798 -18.631579 11.872471 0.000000 0.000000 -19.972700 
-16.764226 9.219783 28.749033 -173.351602 -22.137970 168.985338 0.597593 -2.930835 -14.095317 11.365603 -7.494207 33.497608 0.000000 0.000000 0.000000 11.459899 -32.234892 9.230219 13.860493 -1.213052 -65.037771 -32.437401 0.416651 -13.081800 -34.317101 9.470330 53.101990 0.000000 -51.290699 0.000000 9.656680 8.291480 -10.504200 20.469500 -1.303720 -0.766128 18.834900 12.884000 -29.458700 0.000000 50.229198 0.000000 -9.981550 -5.787850 -46.320202 3.639227 10.786448 11.962703 0.000000 0.000000 7.605090 -4.108304 11.110422 3.119625 0.000000 0.000000 -8.518240 -0.415326 17.448497 -8.211202 0.000000 0.000000 40.691700 22.146365 -19.988750 11.880260 0.000000 0.000000 -20.169220 
-16.801865 9.227294 28.753806 -172.934290 -23.110923 169.281632 0.219321 -3.679216 -14.449928 11.919727 -7.600819 32.282783 0.000000 0.000000 0.000000 10.923803 -31.955731 9.464943 14.132989 -1.743495 -64.904278 -32.738998 0.509738 -12.941400 -33.952999 9.837220 53.888000 0.000000 -51.102501 0.000000 9.067670 8.431230 -9.490790 20.463400 -1.540890 -1.472920 19.819300 11.824200 -27.384501 0.000000 49.545200 0.000000 -9.818320 -6.241270 -46.371700 3.700458 10.302255 12.301757 0.000000 0.000000 5.759280 -3.982428 10.385024 3.782450 0.000000 0.000000 -8.349670 -0.029181 16.958007 -9.001171 0.000000 0.000000 41.268799 21.150155 -20.565142 11.013585 0.000000 0.000000 -20.231760 
-16.835836 9.229755 28.755591 -172.535250 -24.083939 169.544229 -0.187869 -4.386357 -14.652875 12.607902 -7.576253 30.867704 0.000000 0.000000 0.000000 10.379420 -31.736202 9.624064 14.445125 -2.380479 -64.793039 -33.064999 0.625823 -12.664600 -33.625702 10.198300 54.529999 0.000000 -50.985500 0.000000 8.398230 8.529540 -8.914000 20.549999 -1.930380 -1.647480 20.405300 11.003700 -25.854099 0.000000 48.611698 0.000000 -9.611830 -6.357390 -45.611198 3.597956 9.054355 12.592739 0.000000 0.000000 4.088140 -3.902968 10.299731 4.263629 0.000000 0.000000 -8.251940 0.382734 16.915939 -9.616767 0.000000 0.000000 41.446301 20.959502 -20.233345 10.064802 0.000000 0.000000 -20.672060 
-16.866886 9.229215 28.756376 -172.298794 -25.063152 169.863688 -0.807689 -5.172465 -14.760163 13.547037 -7.461452 29.415174 0.000000 0.000000 0.000000 9.623451 -31.375533 9.733117 14.966635 -3.205327 -64.829573 -33.573101 0.805182 -12.437300 -33.270401 10.560700 55.112000 0.000000 -50.914501 0.000000 7.726500 8.590340 -8.215340 20.438200 -2.276850 -1.702920 20.920401 10.147900 -24.493000 0.000000 47.339298 0.000000 -9.054960 -5.389940 -45.026100 3.569089 8.588804 12.682050 0.000000 0.000000 2.891510 -3.801888 9.490918 4.688417 0.000000 0.000000 -8.326090 0.680284 17.145256 -10.114527 0.000000 0.000000 41.262501 20.570463 -19.609487 9.288789 0.000000 0.000000 -21.663110 
-16.895084 9.223765 28.756654 -172.195623 -26.049991 170.222976 -1.571260 -5.992518 -14.828976 14.661321 -7.287128 28.060005 0.000000 0.000000 0.000000 8.742710 -30.963628 9.610199 15.492526 -4.221930 -64.879480 -34.108200 0.946439 -12.315800 -33.003601 11.001900 55.618011 0.000000 -50.892601 0.000000 7.203090 8.645730 -7.373360 20.150200 -2.598710 -1.574960 21.298300 9.492550 -22.899900 0.000000 46.105099 0.000000 -9.642900 -5.685670 -44.785500 3.416109 8.025600 12.632944 0.000000 0.000000 1.992560 -3.762903 8.805480 4.946645 0.000000 0.000000 -8.387260 0.870903 17.583343 -10.551536 0.000000 0.000000 40.857498 19.768976 -19.036985 8.622595 0.000000 0.000000 -22.122120 
-16.922179 9.215177 28.754812 -172.247214 -27.019893 170.512504 -2.367453 -6.727676 -14.838296 15.582283 -7.097453 26.914656 0.000000 0.000000 0.000000 7.852742 -30.578369 9.529927 16.018282 -5.225943 -65.052655 -34.587200 1.115390 -12.208700 -32.759701 11.381400 55.990997 0.000000 -50.891602 0.000000 6.881620 8.741560 -6.691510 19.886801 -2.841890 -1.451780 21.564501 9.046970 -21.248899 0.000000 44.570099 0.000000 -9.859950 -6.428840 -44.634499 3.103968 7.330756 12.523406 0.000000 0.000000 1.500210 -3.658234 8.427774 5.066957 0.000000 0.000000 -8.360010 0.984209 18.229621 -10.788575 0.000000 0.000000 40.227001 19.263427 -18.688654 8.018774 0.000000 0.000000 -22.777640 
-16.949695 9.204374 28.752941 -172.495857 -27.907230 170.791291 -3.113060 -7.252451 -14.890553 16.059777 -6.926503 26.149324 0.000000 0.000000 0.000000 7.077253 -30.188384 9.352467 16.508392 -6.084240 -65.208368 -34.914001 1.310660 -12.089700 -32.567101 11.616600 56.083008 0.000000 -50.906399 0.000000 6.840920 8.885870 -6.255490 19.672199 -3.008670 -1.382700 21.885401 8.731060 -19.454901 0.000000 42.798302 0.000000 -9.630310 -6.541450 -43.835098 2.649574 6.817161 12.323884 0.000000 0.000000 1.408710 -3.510566 8.102610 5.113946 0.000000 0.000000 -8.283860 0.957244 19.107432 -10.913427 0.000000 0.000000 39.497299 19.474872 -18.517489 7.488738 0.000000 0.000000 -23.137180 
-16.979220 9.192524 28.750194 -172.895321 -28.599886 170.991878 -3.633884 -7.405283 -15.061965 15.986148 -6.780302 25.910206 0.000000 0.000000 0.000000 6.342359 -29.766026 9.085955 17.063470 -6.881609 -65.400226 -35.124298 1.392840 -12.095500 -32.296101 11.813000 55.944000 0.000000 -50.928001 0.000000 6.989480 8.908680 -6.130580 19.720800 -3.093360 -1.544790 22.018101 8.908800 -17.733500 0.000000 40.331100 0.000000 -9.234140 -6.399130 -41.289799 2.022108 6.159438 12.272038 0.000000 0.000000 1.413710 -3.402460 8.212624 5.119863 0.000000 0.000000 -8.171480 0.888381 20.104605 -10.876801 0.000000 0.000000 38.738602 19.427411 -18.597650 6.891747 0.000000 0.000000 -23.089730 
-17.009581 9.181894 28.744411 -173.290049 -29.094626 170.994142 -3.968755 -7.255348 -15.338596 15.627321 -6.661601 26.196457 0.000000 0.000000 0.000000 5.724946 -29.389634 8.702535 17.436112 -7.550954 -65.561671 -35.242401 1.405710 -12.108100 -32.047001 11.835100 55.576996 0.000000 -50.987999 0.000000 7.223670 8.918630 -6.577670 19.728800 -2.981480 -1.807650 22.175200 9.167740 -15.746100 0.000000 37.603401 0.000000 -8.831040 -6.462600 -37.536701 1.600544 6.226594 12.422846 0.000000 0.000000 1.568180 -3.330385 7.772817 5.105713 0.000000 0.000000 -8.197280 0.940475 21.213465 -10.585299 0.000000 0.000000 37.881599 19.002107 -18.842755 6.477571 0.000000 0.000000 -23.212290 
-17.041611 9.172639 28.736801 -173.677416 -29.431352 170.909178 -4.026914 -6.743045 -15.827928 14.782680 -6.582948 26.993155 0.000000 0.000000 0.000000 5.302332 -29.096671 8.206902 17.886074 -8.101153 -65.681642 -35.157299 1.368570 -12.162600 -31.839800 11.688700 55.013000 0.000000 -51.096500 0.000000 7.581260 8.867360 -6.991330 19.881201 -2.622290 -2.040360 22.236000 9.502390 -13.682800 0.000000 34.632500 0.000000 -8.251400 -5.975070 -33.548401 1.243448 6.467878 12.650741 0.000000 0.000000 1.843550 -3.280000 7.272856 5.064209 0.000000 0.000000 -8.269250 1.097808 22.149939 -10.166925 0.000000 0.000000 37.019901 18.598510 -19.046847 5.973976 0.000000 0.000000 -23.195140 
